<svg width="911" height="911" viewBox="0 0 911 911" fill="none" xmlns="http://www.w3.org/2000/svg">
<path d="M374.355 613.274C366.563 626.055 352.124 635.552 337.979 639.549C332.247 641.17 321.051 641.914 304.392 641.78C287.97 641.656 243.399 641.64 170.678 641.733C165.968 641.744 159.637 641.604 151.684 641.315C124.929 640.355 96.5003 631.276 77.1194 612.623C55.8535 592.184 47.9628 565.904 53.4471 533.783C56.4991 515.858 64.4157 500.66 74.6406 483.464C137.746 377.31 178.522 308.447 196.968 276.873C210.271 254.12 220.325 238.545 227.132 230.149C266.281 181.859 321.929 155.615 384.813 149.279C393.003 148.452 406.476 148.044 425.232 148.055C603.012 148.096 692.883 148.101 694.845 148.07C714.211 147.75 727.999 148.525 736.21 150.394C755.327 154.763 772.957 161.456 786.947 174.082C809.762 194.676 818.655 221.163 813.625 253.542C812.21 262.672 808.801 273.326 803.4 285.503C801.851 288.983 796.31 298.759 786.777 314.83C755.957 366.812 737.692 397.404 731.98 406.606C722.674 421.582 717.96 429.173 717.836 429.38C701.956 457.08 678.625 480.474 651.42 496.415C644.025 500.753 635.628 505.06 626.23 509.336C605.857 518.6 583.982 522.783 562.634 522.551C560.712 522.53 528.432 522.53 465.791 522.551C447.789 522.561 432.782 528.329 420.77 539.856C416.133 544.307 410.013 553.107 402.412 566.255C394.666 579.661 385.313 595.334 374.355 613.274ZM155.046 580.012C155.33 579.998 155.606 579.913 155.848 579.764C156.089 579.615 156.287 579.407 156.425 579.16C188.979 521.652 224.772 458.722 263.802 390.37C273.934 372.632 284.748 355.853 296.165 339.881C310.14 320.345 326.747 301.243 346.763 289.577C369.119 276.564 395.611 271.296 420.522 269.855C436.541 268.936 447.381 268.471 453.041 268.461C511.984 268.389 608.692 268.379 743.166 268.43C743.402 268.43 743.634 268.37 743.84 268.256C744.046 268.142 744.219 267.978 744.343 267.779C750.958 256.888 759.773 236.361 751.361 224.385C739.479 207.483 711.251 208.382 693.42 208.397C640.684 208.47 554.82 208.454 435.829 208.351C410.731 208.32 393.065 209.157 382.83 210.861C339.606 218.049 301.882 238.298 273.175 271.56C267.577 278.035 259.309 290.507 248.372 308.974C172.356 437.219 129.607 509.419 120.126 525.572C115.313 533.762 112.628 542.205 112.07 550.902C110.614 573.567 137.338 581.065 155.046 580.012ZM710.663 328.742C639.863 328.608 557.211 328.628 462.708 328.804C452.855 328.814 441.112 329.408 427.478 330.585C418.4 331.36 409.704 332.863 401.389 335.094C367.771 344.141 347.135 370.881 330.45 399.309C315.267 425.161 279.165 486.118 222.143 582.181C222.075 582.296 222.038 582.427 222.037 582.561C222.036 582.695 222.07 582.826 222.136 582.943C222.202 583.059 222.297 583.156 222.413 583.224C222.529 583.291 222.66 583.327 222.794 583.327C239.185 583.296 258.824 583.312 281.711 583.374C302.006 583.42 313.997 583.529 327.832 572.297C331.488 569.333 336.693 562.407 343.448 551.522C358.631 527.064 366.723 513.994 367.725 512.31C373.488 502.519 379.173 494.804 384.782 489.165C397.929 475.914 413.845 467.424 432.529 463.695C438.189 462.57 452.664 462.064 475.954 462.177C507.3 462.343 535.419 462.322 560.31 462.115C611.853 461.681 652.969 424.81 678.687 383.492C686.877 370.323 697.711 352.383 711.19 329.671C711.244 329.578 711.272 329.472 711.273 329.364C711.273 329.256 711.245 329.15 711.192 329.056C711.139 328.962 711.062 328.884 710.969 328.829C710.876 328.773 710.771 328.744 710.663 328.742Z" fill="white"/>
<path d="M111.729 681.162C111.722 681.086 111.739 681.009 111.778 680.943C111.816 680.876 111.874 680.824 111.943 680.791C112.013 680.759 112.091 680.749 112.166 680.763C112.241 680.777 112.311 680.813 112.364 680.868C118.468 686.972 125.796 691.552 134.348 694.609C164.899 705.531 199.772 702.665 232.445 702.634C236.618 702.634 274.487 702.655 346.051 702.696C356.472 702.707 364.213 701.979 369.274 700.512C381.854 696.887 392.027 688.423 399.794 675.12C407.808 661.404 418.126 643.81 430.747 622.338C436.159 613.146 440.998 606.546 445.264 602.538C457.441 591.105 472.034 585.388 489.045 585.388C540.087 585.368 566.765 585.378 569.078 585.419C589.786 585.833 605.842 585.058 617.244 583.096C642.558 578.747 665.658 568.383 686.541 552.003C716.147 528.78 740.098 496.927 759.928 465.865C794.115 412.344 811.26 385.501 811.363 385.336C826.778 361.927 836.058 343.398 839.048 318.487C839.059 318.365 839.106 318.249 839.184 318.155C839.262 318.061 839.366 317.993 839.484 317.959C839.601 317.926 839.726 317.929 839.842 317.967C839.957 318.006 840.059 318.079 840.132 318.177C863.123 347.039 864.672 386.901 851.612 420.07C848.576 427.785 842.595 438.351 833.672 451.767C823.003 467.817 805.533 494.402 781.261 531.522C778.731 535.384 774.502 542.113 768.573 551.708C734.087 607.527 676.719 641.765 611.125 646.537C605.867 646.919 590.029 647.032 563.61 646.878C561.771 646.867 545.902 646.821 516.002 646.738C504.496 646.707 496.161 647.559 490.997 649.294C480.844 652.692 472.943 659.297 467.294 669.109C456.831 687.276 446.116 706.079 435.147 725.517C424.158 745.006 407.746 757.136 385.913 761.908C382.69 762.61 376.529 762.946 367.43 762.915C350.13 762.874 301.794 762.874 222.422 762.915C203.94 762.931 190.554 761.366 174.117 756.284C139.615 745.626 114.564 717.925 111.729 681.162Z" fill="white"/>
</svg>
